{"title":"Quadrophenia.1979.DVDRIP-ZEKTORM","uid":4674085,"size":741315514,"categoryP":"video","categoryS":"movies","magnet":"?xt=urn:btih:233ff9289ea2bde26afb388a96587282d09f3d5e&amp;dn=Quadrophenia.1979.DVDRIP-ZEKTORM&amp;tr=udp%3A%2F%2Ftracker.openbittorrent.com%3A80&amp;tr=udp%3A%2F%2Fopen.demonii.com%3A1337&amp;tr=udp%3A%2F%2Ftracker.coppersurfer.tk%3A6969&amp;tr=udp%3A%2F%2Fexodus.desync.com%3A6969","seeders":4,"leechers":0,"uploader":"blowley","files":4,"time":1232834716,"description":"Title                            : Quadrophenia\nYear                             : 1979\nGenre                            : Crime | Drama | Music\niMDB Rate                        : User Rating: 7.0/10   4,711 votes\niMDB URL                         : http://www.imdb.com/title/tt0079766/\n\nComplete name                    : Quadrophenia.1979.DVDRIP-ZEKTORM.mp4\nFormat                           : MPEG-4\nFormat profile                   : Base Media\nCodec ID                         : isom\nFile size                        : 700 MiB\nDuration                         : 2h 2mn\nOverall bit rate                 : 800 Kbps\nSubtitles                        : English, Spanish (Format: VobSub)\nSource                           : DVD PAL\nEncoded date                     : UTC 2009-01-23 20:07:48\n\nVideo\nFormat                           : AVC\nFormat/Info                      : Advanced Video Codec\nFormat profile                   : &lt;a class=&quot;__cf_email__&quot; href=&quot;/cdn-cgi/l/email-protection&quot; data-cfemail=&quot;5d15343a351d1169736c&quot;&gt;[email&amp;#160;protected]&lt;/a&gt;&lt;script cf-hash='f9e31' type=&quot;text/javascript&quot;&gt;\n/* &lt;![CDATA[ */!function(){try{var t=&quot;currentScript&quot;in document?document.currentScript:function(){for(var t=document.getElementsByTagName(&quot;script&quot;),e=t.length;e--;)if(t[e].getAttribute(&quot;cf-hash&quot;))return t[e]}();if(t&amp;&amp;t.previousSibling){var e,r,n,i,c=t.previousSibling,a=c.getAttribute(&quot;data-cfemail&quot;);if(a){for(e=&quot;&quot;,r=parseInt(a.substr(0,2),16),n=2;a.length-n;n+=2)i=parseInt(a.substr(n,2),16)^r,e+=String.fromCharCode(i);e=document.createTextNode(e),c.parentNode.replaceChild(e,c)}}}catch(u){}}();/* ]]&gt; */&lt;/script&gt;\nFormat settings, CABAC           : Yes\nFormat settings, ReFrames        : 10 frames\nCodec ID                         : avc1\nCodec ID/Info                    : Advanced Video Coding\nDuration                         : 2h 2mn\nBit rate mode                    : Variable\nBit rate                         : 706 Kbps\nMaximum bit rate                 : 4072 Kbps\nWidth                            : 688 pixels\nHeight                           : 576 pixels\nDisplay aspect ratio             : 4/3\nFrame rate mode                  : Constant\nFrame rate                       : 25.000 fps\nResolution                       : 24 bits\nColorimetry                      : 4:2:0\nScan type                        : Progressive\nBits/(Pixel*Frame)               : 0.071\nStream size                      : 618 MiB (88%)\nTitle                            : Video\nWriting library                  : x264 core 60 r900 a9af942\n\nAudio\nFormat                           : AAC\nFormat/Info                      : Advanced Audio Codec\nFormat version                   : Version 4\nFormat profile                   : LC\nFormat settings, SBR             : Yes\nFormat settings, PS              : No\nCodec ID                         : 40\nDuration                         : 2h 2mn\nBit rate mode                    : Variable\nBit rate                         : 91.3 Kbps\nMaximum bit rate                 : 110 Kbps\nChannel(s)                       : 2 channels\nChannel positions                : L R\nSampling rate                    : 48.0 KHz\nResolution                       : 16 bits\nStream size                      : 79.9 MiB (11%)\nTitle                            : English\nLanguage                         : English\n\nNotes                            : Convert to DVD with Nero\n","torrent":{"xt":"urn:btih:233ff9289ea2bde26afb388a96587282d09f3d5e","amp;dn":"Quadrophenia.1979.DVDRIP-ZEKTORM","amp;tr":["udp%3A%2F%2Ftracker.openbittorrent.com%3A80","udp%3A%2F%2Fopen.demonii.com%3A1337","udp%3A%2F%2Ftracker.coppersurfer.tk%3A6969","udp%3A%2F%2Fexodus.desync.com%3A6969"],"infoHash":"233ff9289ea2bde26afb388a96587282d09f3d5e","infoHashBuffer":{"type":"Buffer","data":[35,63,249,40,158,162,189,226,106,251,56,138,150,88,114,130,208,159,61,94]},"announce":[],"urlList":[]}}